# xmcd
#
# Track frame offsets:
#	150
#	14477
#	19569
#	22595
#	32072
#	45855
#	52710
#	55885
#	61482
#	75952
#	81255
#	104252
#	109995
#	113615
#	116422
#	127142
#	140585
#	145720
#	148782
#	152300
#	154660
#	167297
#	171910
#	179792
#	183615
#	189020
#	197332
#	211575
#	231205
#	238215
#
# Disc length: 3527 seconds
#
# Revision: 1
# Processed by: cddbd v1.5.1PL0 Copyright (c) Steve Scherf et al.
# Submitted via: audiograbber 1.81.03
#
DISCID=7c0dc51e
DTITLE=Tim and Willy (Knix Radio Phoenix) - Yule Shoot Your Eye Out!
DYEAR=2004
DGENRE=Country
TTITLE0=White Christmas - Billy Currington
TTITLE1=Bread - Gary Gulamn
TTITLE2=Whiskey Polka-Bye - Tim and Willy
TTITLE3=Half A Beer - Steve Ludwig
TTITLE4=Save A Horse (Ride A Cowboy) - Big and Rich
TTITLE5="Richard Simmons" - Harland Williams
TTITLE6=Johnny Cash Reads The Bible - Tim and Willy
TTITLE7=Celebrity Poker - Kathy Griffin
TTITLE8=When The Sun Comes Up - Tim and Willy
TTITLE9=Confirmation Codes - Brian Regan
TTITLE10=Something That We Do - Clint Black
TTITLE11=John, George, Al, and Jim - Frank Caliendo
TTITLE12=Cucumbers On The Highway - Tim and Willy
TTITLE13=Tatoos - Greg Behrendt
TTITLE14=Lugnut and Moonshine - Tim and Willy
TTITLE15=Clapper - Trailer Park Troubadours
TTITLE16=Fastfood - Dennis Regan
TTITLE17=Thank God I'm Howard Dean - Tim and Willy
TTITLE18=What's An Autoharp? - Andrea
TTITLE19=Fat Country Baby - Tim and Willy
TTITLE20=Just Like A Redneck - Shannon Lawson
TTITLE21=Regis - Darrell Hammond
TTITLE22=Britney's 48 Hour Marriage - Tim and Willy
TTITLE23=Pushy Girlfrend - Greg Hahn
TTITLE24=The Golden Pot - Tim and Willy
TTITLE25=Guitar Pill - Henry Phillips
TTITLE26=Don't Let Me Die Of A Broken Heart - Carolyn Dawn Johnson
TTITLE27=Baby It's Cold Outside - Wynonna and Tim
TTITLE28=Let It Snow - Sunnyslope High School Vocal Ensemble
TTITLE29=Dear Santa - Sean Morey
EXTD=Yearly Benefit disk made by Tim and Willy on Knix Radio Phoenix AZ
EXTT0=
EXTT1=
EXTT2=
EXTT3=
EXTT4=
EXTT5=
EXTT6=
EXTT7=
EXTT8=
EXTT9=
EXTT10=
EXTT11=
EXTT12=
EXTT13=
EXTT14=
EXTT15=
EXTT16=
EXTT17=
EXTT18=
EXTT19=
EXTT20=
EXTT21=
EXTT22=
EXTT23=
EXTT24=
EXTT25=
EXTT26=
EXTT27=
EXTT28=
EXTT29=
PLAYORDER=
